# xmcd
#
# Track frame offsets: 
#        150
#        15355
#        27570
#        39250
#        49380
#        62692
#        73577
#        85897
#        96027
#        109120
#        121445
#        133257
#        142592
#        163670
#        173837
#        188555
#        203497
#        214602
#        228815
#        251345
#
# Disc length: 3549 seconds
#
# Revision: 6
# Processed by: cddbd v1.5.2PL0 Copyright (c) Steve Scherf et al.
# Submitted via: ExactAudioCopy v1.3
#
DISCID=050ddb14
DTITLE=Larry Williams and Johnny Watson - Two For The Price Of One
DYEAR=1967
DGENRE=Blues
TTITLE0=Two For The Price Of One
TTITLE1=Keep On Lovin' You
TTITLE2=Ask Me
TTITLE3=Ain't Gonna Move
TTITLE4=Mercy Mercy Mercy
TTITLE5=Too Late
TTITLE6=Love Is Such A Funny Thing
TTITLE7=Takin' No Chances
TTITLE8=I'd Rather Fight Than Switch
TTITLE9=A Quitter Never Wins
TTITLE10=Nobody
TTITLE11=Find Yourself Someone To Love
TTITLE12=Fever
TTITLE13=Coke
TTITLE14=Unchained My Heart
TTITLE15=Comin' Home Baby
TTITLE16=Skate Key
TTITLE17=Summertime
TTITLE18=Makin' Whoopee
TTITLE19=Ain't Misbehavin'
EXTD=
EXTT0=
EXTT1=
EXTT2=
EXTT3=
EXTT4=
EXTT5=
EXTT6=
EXTT7=
EXTT8=
EXTT9=
EXTT10=
EXTT11=
EXTT12=
EXTT13=
EXTT14=
EXTT15=
EXTT16=
EXTT17=
EXTT18=
EXTT19=
PLAYORDER=
